<svg width="93" height="102" viewBox="0 0 93 102" fill="none" xmlns="http://www.w3.org/2000/svg">
<path fill-rule="evenodd" clip-rule="evenodd" d="M36.3339 2.69632C39.4361 1.41136 42.7609 0.75 46.1187 0.75C49.4764 0.75 52.8013 1.41136 55.9035 2.69631C59.0056 3.98127 61.8243 5.86466 64.1986 8.23895C66.5729 10.6132 68.4563 13.4319 69.7412 16.5341C71.0262 19.6362 71.6876 22.9611 71.6876 26.3189C71.6876 28.3362 70.0522 29.9716 68.0349 29.9716C66.0175 29.9716 64.3822 28.3362 64.3822 26.3189C64.3822 23.9205 63.9098 21.5456 62.9919 19.3297C62.0741 17.1139 60.7288 15.1006 59.0329 13.4046C57.337 11.7087 55.3236 10.3634 53.1078 9.44562C50.892 8.52779 48.5171 8.05539 46.1187 8.05539C43.7203 8.05539 41.3454 8.52779 39.1295 9.44562C36.9137 10.3634 34.9004 11.7087 33.2044 13.4046C31.5085 15.1006 30.1632 17.1139 29.2454 19.3297C28.3276 21.5456 27.8552 23.9205 27.8552 26.3189C27.8552 28.3362 26.2198 29.9716 24.2025 29.9716C22.1852 29.9716 20.5498 28.3362 20.5498 26.3189C20.5498 22.9611 21.2112 19.6363 22.4961 16.5341C23.7811 13.4319 25.6645 10.6132 28.0388 8.23895C30.413 5.86466 33.2317 3.98127 36.3339 2.69632Z" fill="#CD4C82" stroke="#CD4C82" stroke-width="1.5" stroke-linecap="round"/>
<mask id="path-2-inside-1_359_992" fill="white">
<path d="M67.8838 23.8838C77.7082 23.884 85.9952 31.1997 87.2139 40.9482L92.084 79.9102C93.5374 91.5374 84.4716 101.807 72.7539 101.808H19.4844C7.76657 101.808 -1.3001 91.5375 0.15332 79.9102L5.02344 40.9482C6.24216 31.1995 14.5298 23.8838 24.3545 23.8838H67.8838ZM60.7295 52.8623C58.7122 52.8624 57.0771 54.4974 57.0771 56.5146C57.0771 57.9536 56.7938 59.3786 56.2432 60.708C55.6925 62.0374 54.8847 63.2452 53.8672 64.2627C52.8497 65.2802 51.6419 66.088 50.3125 66.6387C48.9831 67.1893 47.5581 67.4726 46.1191 67.4727C44.6802 67.4727 43.2552 67.1893 41.9258 66.6387C40.5963 66.088 39.3877 65.2802 38.3701 64.2627C37.3527 63.2452 36.5458 62.0374 35.9951 60.708C35.4444 59.3785 35.1611 57.9537 35.1611 56.5146C35.1611 54.4973 33.5251 52.8623 31.5078 52.8623C29.4906 52.8624 27.8555 54.4974 27.8555 56.5146C27.8555 58.913 28.3273 61.2881 29.2451 63.5039C30.1629 65.7197 31.5092 67.7328 33.2051 69.4287C34.901 71.1246 36.9141 72.4699 39.1299 73.3877C41.3457 74.3055 43.7208 74.7783 46.1191 74.7783C48.5174 74.7783 50.8927 74.3055 53.1084 73.3877C55.3241 72.4699 57.3374 71.1245 59.0332 69.4287C60.729 67.7328 62.0744 65.7196 62.9922 63.5039C63.91 61.2881 64.3828 58.913 64.3828 56.5146C64.3828 54.4973 62.7468 52.8623 60.7295 52.8623Z"/>
</mask>
<path d="M67.8838 23.8838C77.7082 23.884 85.9952 31.1997 87.2139 40.9482L92.084 79.9102C93.5374 91.5374 84.4716 101.807 72.7539 101.808H19.4844C7.76657 101.808 -1.3001 91.5375 0.15332 79.9102L5.02344 40.9482C6.24216 31.1995 14.5298 23.8838 24.3545 23.8838H67.8838ZM60.7295 52.8623C58.7122 52.8624 57.0771 54.4974 57.0771 56.5146C57.0771 57.9536 56.7938 59.3786 56.2432 60.708C55.6925 62.0374 54.8847 63.2452 53.8672 64.2627C52.8497 65.2802 51.6419 66.088 50.3125 66.6387C48.9831 67.1893 47.5581 67.4726 46.1191 67.4727C44.6802 67.4727 43.2552 67.1893 41.9258 66.6387C40.5963 66.088 39.3877 65.2802 38.3701 64.2627C37.3527 63.2452 36.5458 62.0374 35.9951 60.708C35.4444 59.3785 35.1611 57.9537 35.1611 56.5146C35.1611 54.4973 33.5251 52.8623 31.5078 52.8623C29.4906 52.8624 27.8555 54.4974 27.8555 56.5146C27.8555 58.913 28.3273 61.2881 29.2451 63.5039C30.1629 65.7197 31.5092 67.7328 33.2051 69.4287C34.901 71.1246 36.9141 72.4699 39.1299 73.3877C41.3457 74.3055 43.7208 74.7783 46.1191 74.7783C48.5174 74.7783 50.8927 74.3055 53.1084 73.3877C55.3241 72.4699 57.3374 71.1245 59.0332 69.4287C60.729 67.7328 62.0744 65.7196 62.9922 63.5039C63.91 61.2881 64.3828 58.913 64.3828 56.5146C64.3828 54.4973 62.7468 52.8623 60.7295 52.8623Z" fill="#CD4C82"/>
<path d="M67.8838 23.8838L67.8838 22.3838H67.8838V23.8838ZM87.2139 40.9482L88.7023 40.7622L88.7023 40.7622L87.2139 40.9482ZM92.084 79.9102L90.5956 80.0962L90.5956 80.0962L92.084 79.9102ZM72.7539 101.808L72.7539 103.308L72.7539 103.308L72.7539 101.808ZM0.15332 79.9102L1.64174 80.0962L1.64174 80.0962L0.15332 79.9102ZM5.02344 40.9482L3.53502 40.7622L3.53502 40.7622L5.02344 40.9482ZM60.7295 52.8623L60.7295 51.3623L60.7294 51.3623L60.7295 52.8623ZM57.0771 56.5146L58.5771 56.5146V56.5146H57.0771ZM56.2432 60.708L57.629 61.282L57.629 61.282L56.2432 60.708ZM53.8672 64.2627L54.9278 65.3234L54.9279 65.3233L53.8672 64.2627ZM50.3125 66.6387L50.8865 68.0245L50.8865 68.0245L50.3125 66.6387ZM46.1191 67.4727L46.1191 68.9727L46.1192 68.9727L46.1191 67.4727ZM41.9258 66.6387L41.3518 68.0245L41.3518 68.0245L41.9258 66.6387ZM38.3701 64.2627L37.3094 65.3233L37.3095 65.3234L38.3701 64.2627ZM35.9951 60.708L34.6093 61.282L34.6093 61.282L35.9951 60.708ZM35.1611 56.5146L33.6611 56.5146L33.6611 56.5146L35.1611 56.5146ZM31.5078 52.8623L31.5078 51.3623L31.5077 51.3623L31.5078 52.8623ZM27.8555 56.5146L26.3555 56.5146L26.3555 56.5146L27.8555 56.5146ZM29.2451 63.5039L27.8593 64.0779L27.8593 64.0779L29.2451 63.5039ZM33.2051 69.4287L32.1444 70.4894L32.1444 70.4894L33.2051 69.4287ZM39.1299 73.3877L38.5559 74.7735L38.5559 74.7735L39.1299 73.3877ZM46.1191 74.7783L46.1191 76.2783L46.1192 76.2783L46.1191 74.7783ZM53.1084 73.3877L53.6824 74.7735L53.6825 74.7735L53.1084 73.3877ZM59.0332 69.4287L60.0939 70.4894L60.0939 70.4894L59.0332 69.4287ZM62.9922 63.5039L64.378 64.0779L64.378 64.0779L62.9922 63.5039ZM64.3828 56.5146L65.8828 56.5146V56.5146H64.3828ZM67.8838 23.8838L67.8838 25.3838C76.9517 25.384 84.6006 32.1364 85.7255 41.1343L87.2139 40.9482L88.7023 40.7622C87.3897 30.263 78.4647 22.384 67.8838 22.3838L67.8838 23.8838ZM87.2139 40.9482L85.7254 41.1343L90.5956 80.0962L92.084 79.9102L93.5724 79.7241L88.7023 40.7622L87.2139 40.9482ZM92.084 79.9102L90.5956 80.0962C91.9371 90.8282 83.5693 100.307 72.7539 100.308L72.7539 101.808L72.7539 103.308C85.3738 103.307 95.1377 92.2466 93.5724 79.7241L92.084 79.9102ZM72.7539 101.808V100.308H19.4844V101.808V103.308H72.7539V101.808ZM19.4844 101.808V100.308C8.66877 100.308 0.300237 90.8282 1.64174 80.0962L0.15332 79.9102L-1.3351 79.7241C-2.90043 92.2467 6.86436 103.308 19.4844 103.308V101.808ZM0.15332 79.9102L1.64174 80.0962L6.51185 41.1343L5.02344 40.9482L3.53502 40.7622L-1.3351 79.7241L0.15332 79.9102ZM5.02344 40.9482L6.51185 41.1343C7.63673 32.1362 15.2863 25.3838 24.3545 25.3838V23.8838V22.3838C13.7734 22.3838 4.84759 30.2627 3.53502 40.7622L5.02344 40.9482ZM24.3545 23.8838V25.3838H67.8838V23.8838V22.3838H24.3545V23.8838ZM60.7295 52.8623L60.7294 51.3623C57.8838 51.3624 55.5771 53.6689 55.5771 56.5146H57.0771H58.5771C58.5771 55.3259 59.5406 54.3624 60.7295 54.3623L60.7295 52.8623ZM57.0771 56.5146L55.5771 56.5146C55.5771 57.7567 55.3326 58.9866 54.8573 60.134L56.2432 60.708L57.629 61.282C58.255 59.7705 58.5771 58.1505 58.5771 56.5146L57.0771 56.5146ZM56.2432 60.708L54.8573 60.134C54.3822 61.281 53.6851 62.3235 52.8065 63.2021L53.8672 64.2627L54.9279 65.3233C56.0843 64.1669 57.0027 62.7939 57.629 61.282L56.2432 60.708ZM53.8672 64.2627L52.8065 63.202C51.928 64.0806 50.8855 64.7777 49.7385 65.2529L50.3125 66.6387L50.8865 68.0245C52.3984 67.3982 53.7714 66.4798 54.9278 65.3234L53.8672 64.2627ZM50.3125 66.6387L49.7385 65.2529C48.5912 65.7281 47.3612 65.9726 46.1191 65.9727L46.1191 67.4727L46.1192 68.9727C47.755 68.9726 49.375 68.6506 50.8865 68.0245L50.3125 66.6387ZM46.1191 67.4727V65.9727C44.8772 65.9727 43.6471 65.728 42.4998 65.2528L41.9258 66.6387L41.3518 68.0245C42.8632 68.6505 44.4833 68.9727 46.1191 68.9727V67.4727ZM41.9258 66.6387L42.4998 65.2529C41.3524 64.7776 40.3091 64.0804 39.4308 63.202L38.3701 64.2627L37.3095 65.3234C38.4662 66.4801 39.8402 67.3984 41.3518 68.0245L41.9258 66.6387ZM38.3701 64.2627L39.4308 63.2021C38.5527 62.3239 37.8562 61.2814 37.3809 60.134L35.9951 60.708L34.6093 61.282C35.2353 62.7933 36.1527 64.1665 37.3094 65.3233L38.3701 64.2627ZM35.9951 60.708L37.3809 60.134C36.9057 58.9866 36.6611 57.7568 36.6611 56.5146L35.1611 56.5146L33.6611 56.5146C33.6611 58.1506 33.9832 59.7705 34.6093 61.282L35.9951 60.708ZM35.1611 56.5146L36.6611 56.5146C36.6611 53.6684 34.353 51.3623 31.5078 51.3623V52.8623V54.3623C32.6972 54.3623 33.6611 55.3263 33.6611 56.5146L35.1611 56.5146ZM31.5078 52.8623L31.5077 51.3623C28.6623 51.3625 26.3555 53.6689 26.3555 56.5146L27.8555 56.5146L29.3555 56.5146C29.3555 55.3259 30.3189 54.3624 31.5079 54.3623L31.5078 52.8623ZM27.8555 56.5146L26.3555 56.5146C26.3555 59.1098 26.866 61.6799 27.8593 64.0779L29.2451 63.5039L30.6309 62.9299C29.7886 60.8963 29.3555 58.7163 29.3555 56.5146L27.8555 56.5146ZM29.2451 63.5039L27.8593 64.0779C28.8527 66.4761 30.3095 68.6544 32.1444 70.4894L33.2051 69.4287L34.2657 68.3681C32.7088 66.8111 31.4732 64.9633 30.6309 62.9299L29.2451 63.5039ZM33.2051 69.4287L32.1444 70.4894C33.9796 72.3245 36.158 73.7803 38.5559 74.7735L39.1299 73.3877L39.7039 72.0019C37.6702 71.1595 35.8224 69.9247 34.2657 68.368L33.2051 69.4287ZM39.1299 73.3877L38.5559 74.7735C40.9535 75.7666 43.5236 76.2783 46.1191 76.2783V74.7783V73.2783C43.9179 73.2783 41.7379 72.8444 39.7039 72.0019L39.1299 73.3877ZM46.1191 74.7783L46.1192 76.2783C48.7146 76.2783 51.2848 75.7666 53.6824 74.7735L53.1084 73.3877L52.5344 72.0019C50.5005 72.8443 48.3203 73.2783 46.1191 73.2783L46.1191 74.7783ZM53.1084 73.3877L53.6825 74.7735C56.0801 73.7803 58.2588 72.3245 60.0939 70.4894L59.0332 69.4287L57.9725 68.3681C56.416 69.9246 54.568 71.1595 52.5343 72.0019L53.1084 73.3877ZM59.0332 69.4287L60.0939 70.4894C61.9289 68.6543 63.3848 66.4757 64.378 64.0779L62.9922 63.5039L61.6064 62.9299C60.764 64.9636 59.5291 66.8114 57.9725 68.3681L59.0332 69.4287ZM62.9922 63.5039L64.378 64.0779C65.3712 61.6803 65.8828 59.1102 65.8828 56.5146L64.3828 56.5146L62.8828 56.5146C62.8828 58.7159 62.4489 60.8959 61.6064 62.9299L62.9922 63.5039ZM64.3828 56.5146H65.8828C65.8828 53.6684 63.5747 51.3623 60.7295 51.3623V52.8623V54.3623C61.9189 54.3623 62.8828 55.3263 62.8828 56.5146H64.3828Z" fill="#CD4C82" mask="url(#path-2-inside-1_359_992)"/>
</svg>
